<?xml version="1.0" encoding="utf-8"?>
<svg height="704" viewBox="0 0 1000 1000" width="1000" xmlns="http://www.w3.org/2000/svg"><path d="M159 261.9l2.1 0.7 4.4 1.1 32.1-1.8 2.5 0.5 0.6 0.9 0.8 0.8 1.3 0.6 1.3 0.2 1.8-0.1 1.2 0.4 1.6 0.8 1.2 1.3 2.4 0.9 8.5 0.4 2.6 0.5 1.8 0.8 1 1 2.2 1.6 0.7 0.9 0.7 1.6 2.1 5.7 1.2 2.3 1.4 1.8 1.9 1.3 2.4 0.7 1.6 0.8 4.5 3.9 7.2 2.7 0.9 1 0.3 1.2 0.4 1.4 1.1 1.6 1.4 0.8 1.5 0.3 8.7 0.2 7.3 1.6 4.6 0.4 4-0.3 4.7 4.8-6.3 4.7-1.7 3.7-0.9 2.2-2.2 3.7-2 1.8-1.8 1-2.3 0.3-1.8-0.1-5.4-1.3-1.7 0.2-1.3 0.8-2.2 2-0.9 1.4-0.4 1.5 0.2 4.6-0.2 1.9-0.4 2.1-1.4 2.9-0.6 1.7-0.2 1.4 1 3.2 0.3 1.5-0.1 1.6-0.7 2.3-1 2.4-4.5 5.8-1.8 0.9-0.3 0.4-0.5 0.5-0.6 2-0.4 0.5-0.6 0.3-1.6 0.2-3.6 0.9-0.8 0.3-0.7 0.7-0.6 0.7-0.6 0.5-0.9-0.1-2.3-1.3-1.3-0.2-2 0.2-1.5 0-1.4-0.3-1-1-0.7-0.8-0.8-0.6-1.6-0.8-0.7-0.5-0.4-0.7-0.3-1-0.5-0.7-1-0.5-3.8-0.3-1.7-0.5-1.2-1.1-0.8-1-1-0.7-1.4-0.5-2.3 0-1.2 0.2-0.7 0.4-0.4 0.7-0.3 0.9-0.6 3.1-0.4 0.7-0.5 0.5-0.8 0.1-2.1 0-1-0.3-0.8-0.8-0.7-0.5-0.5 0-0.5 0.8-0.1 1-0.1 1.1 0.2 1.9-0.2 0.7-0.4 0.2-0.6-0.3-0.8-1-1.2-1.9-0.8-0.8-1.1-0.7-3.1-1.5-1.4 0.1-0.8 0.4-0.7 0.9-1.3 2.3-0.9 2.2-0.6 0.7-0.7 0-0.8-0.8-0.4-0.9-0.6-0.7-1.3-0.9-0.4-0.4-0.1-0.6 0.2-0.7 0.3-0.7 0.1-0.8-0.3-0.9-0.9-1.2-1.9-1.6-2.2-2.2-1-0.6-1-0.3-2.7 0.4-0.9-0.3-0.7-1-0.2-1.1 0-1.1-0.1-0.9-0.8-0.8-1.5-0.5-3.2-0.4-1.6 0.2-1 0.5-0.2 0.8 0 1-0.1 0.9-0.4 0.9-0.6 0.7-2.6 2-2.1 2.2-0.7 0.3-0.6-0.2-1.4-1.6-1-0.5-1.6 0-1.4 0.2-1.1 0.5-2.2 1.9-1.4 0-1.6-0.9-2.5-2.5-0.8-1.7-0.1-1.3-0.2-0.5-0.7-0.3-1.5 0.2-0.9 0.5-0.9 0.8-0.4 0.8-0.2 0.8 0 1.6-0.2 0.7-0.4 0.7-0.7 0.4-1 0.1-1.4-0.3-1.2-0.7-1.3-1.6-0.2-1 0.2-1.6-0.4-0.7-1-0.6-2.1-0.6-1.1 0.1-1.8 0.5-0.9 0-5.9-1.1-1.4-0.5-1.2-0.8-1.3-1.9-1-2.7-3.4-3.5-13.6-9.6-1.4-0.5 0.1-1.7 0.5-1 0.7-0.3 0.9 0.3 0.9 0.2 0.8-0.8 0-1.1-0.9-3.1 0-1.3 0.4-0.8 3.8-3.1 0.8-0.5 1.1-0.6 2-0.5 1.9 0 0.9 0.5 1.8 1.5 0.7 0.4 1-0.1 1.4-0.8 0.7-0.2 1.7 0.4 3.6 1.5 1.9-0.1 0.8-0.3 0.9 0 0.7 0.3 0.7 0.8 1.9 1.7 1.7-0.7 4.6-5.6 0.6-0.3 2.8 0 0.9-0.7 1.1-2.1 0.9-2.7 0.4-6.2 0.9-3 1.6-1.9 1.9-0.7 4.1-0.2 2.2-1.7-0.6-3-2.8-5.4 0.2-2.9 1.4-2.2 1.7-2.1 1.1-2.6 0.4-5.3 0.6-2.7 1.4-1.8 2.1-0.5 3.5 0.3 2.1-1.1 2-2.7 0.7-1.8z" id="ROAR" name="Arad" style=";fill:none;stroke:#ffffff;stroke-width:2;"/></svg>