<?xml version="1.0" encoding="utf-8"?>
<svg height="704" viewBox="0 0 1000 1000" width="1000" xmlns="http://www.w3.org/2000/svg"><path d="M230.5 129.6l0.4 0.7 2 3.1 1.2 2.8 0.8 1.3 1.1 1.2 4 2.9 1.4 2 1.5 2.9 2.8 4.2 0.8 1.7 1.1 3 0.6 1.1 0.8 0.7 1.6 0.3 1-0.2 0.8-0.3 0.9 0 0.9 0 1.4 0.3 0.9-0.2 2.3-1.3 1-0.3 1 0.3 1.3 0.9 1.6 1.4 2.9 1.6 1.1 1 0.9 1.7 0.7 3.6 0.9 2.5-1 3.9-0.5 1.2-1.1 1.8-0.5 1.1-0.2 1.2-0.1 1.2-0.3 1.1-0.5 1.1-2.5 3.6-0.8 1-0.8 0.8 0 1.9 1.2 2.9 4.2 6.6 2.8 5.5 0.4 1.1 0.6 1.1 1.1 1.2 6 3.5 3.7 3.8 1.6 2.7-0.7 2-2.1 4.1-0.3 1.3 0.1 0.9 0.9 0.7 4.9 1.9 1.2 1 0.5 1.5-0.4 2.6-0.5 1.6-0.5 1.5-0.5 1.2-0.7 0.9-0.8 0.7-3.6 1.6-1 0.8-0.9 0.9-0.5 1.1-0.2 1.1 0.3 1.3 1.1 1.6 3.9 3.5 1.2 2.1 1.3 2.9 1.6 6.5 0.9 1.7 0.9 0.8 1.1 0.7 0.9 0.9 0.4 1.2-0.4 3.5-0.1 5.2-1.4-0.9-0.9-0.3-1.3-0.2-1.1 0-1.3 0.2-1.1 0.7-1.2 1.4-1.3 2.6-1 3.5-0.5 3.3 0.1 8.5 1.8 7.5-4 0.3-4.6-0.4-7.3-1.6-8.7-0.2-1.5-0.3-1.4-0.8-1.1-1.6-0.4-1.4-0.3-1.2-0.9-1-7.2-2.7-4.5-3.9-1.6-0.8-2.4-0.7-1.9-1.3-1.4-1.8-1.2-2.3-2.1-5.7-0.7-1.6-0.7-0.9-2.2-1.6-1-1-1.8-0.8-2.6-0.5-8.5-0.4-2.4-0.9-1.2-1.3-1.6-0.8-1.2-0.4-1.8 0.1-1.3-0.2-1.3-0.6-0.8-0.8-0.6-0.9-2.5-0.5-32.1 1.8-4.4-1.1-2.1-0.7 0.1-0.5 1.1-1.7 2.6-0.4 1.9-1.1 1.8-2.6 0.3-2.8-2.6-1.8-0.3-0.2-0.2-0.4-0.2-0.4 0.1-0.8 0.2-0.8 0.3-0.8 0.4-0.6 2.1-5.7 1.2-2.3 2-1.9 3.5-0.9 1-0.9 0.8-1.8 0-1.5-0.3-1.5-0.1-1.7 0.1-1.7 0.2-0.4 0.4-0.1 4.4-3.6 0.8-1.1 1.8-6.9 0.4-0.2-0.1-0.1-0.8-1.7-0.7-0.5-0.9-0.2-0.9-0.4-0.2-0.7-0.1-0.5 3.7-4.5 2.2-2.1 4.7-3.1 2-2 0.6-1.2 0.5-2.5 0.4-1.3 0.9-1.3 2.2-2.1 0.8-1.1 0.5-1.7 0-1.3-0.2-1.3 0-1.7 0.4-1.5 1.1-2.1 0.5-1.3 1.1-5.1 0.6-1.6 3.7-5.5 1.8-2 1.7-1 4.3-1.3 1.9-3.9-0.1-4.8-0.8-4.9-0.3-4.4 1.8-3.5 2.9-3.1 5.9-4.5 4.8-1.2 0.5-0.4 0.8-0.6 0.5-1.1 0-0.1z" id="ROBH" name="Bihor" style=";fill:none;stroke:#ffffff;stroke-width:2;"/></svg>