<?xml version="1.0" encoding="utf-8"?>
<svg height="704" viewBox="0 0 1000 1000" width="1000" xmlns="http://www.w3.org/2000/svg"><path d="M498.6 131.4l1 1.2 7.6 6.3 2.5 3 1.2 2.1 0.5 1.5 0.1 1.6-0.7 2-1.1 1.2-1.2 0.8-1.2 0.6-0.7 0.6-0.2 0.7 0.3 0.7 0.5 0.6 0.4 0.8 0.2 1-0.3 1.2-0.4 0.5-0.7 0.1-0.7-0.1-0.7-0.1-0.9 0.2-0.7 0.5-0.4 0.8 0.2 1.1 0.8 1.4 1.9 2.5 0.7 1.2 1.2 2.6 0.4 1.3 0.1 1.6-0.8 2.6-1.2 2.1-0.7 1.9-0.2 1.5 1.1 1.4 1.2 0.3 1 0 0.8-0.2 0.5 0.3 0.1 0.8-0.3 2.2-0.4 1.5-0.6 4.2 0.6 9.9-7.4 2.9-6.4 1.3-2.5 0.9-3.2 2-4.8 4.3-0.8 1-1.3 3.5-0.5 1.1-2.4 3.6-0.8 1.8-0.5 1.9-0.7 4-0.7 1.1-1.2 0.6-1.7-0.3-1.6-0.7-2.8-1.8-1.2-0.5-1.1-0.2-1.1 0.2-1.8 0.8-2.3 1.8-2 2.7-0.9 1.7-0.9 2.6-0.6 1-1.9 2.3-0.5 1.2-0.3 1.5-0.2 1.5-0.3 1.4-0.5 1.1-1.4 0.9-1.8 0.7-3.4 0.4-4.4 1.8-1.5 0.3-2.1-0.1-6.4-1.6-7.9-3.9 2.1-4.4 0.5-1.7 0.7-5.8 0.5-2 0.2-2.2-0.5-1.9-1.8-2-3.4-1.9-1.1-0.9-0.7-1.2-0.1-1.6 0.1-1.1 0.2-1-0.2-0.9-1.7-1.2-0.7-0.9 0-2.1 0.3-1.8 0.5-1.8 0.1-1.8-0.4-1.7-1.4-2-1.4-1-2.2-1.1-1-0.7-2-1.9-1.5-0.9-5.4-1.5-1.2-0.7-1.1-1.2-0.7-1.4-0.4-1.7-1-7.8-0.4-1.5 0-1.7 0.6-1.4 3.1-2.6 1.3-1.5 1-1.6 0.9-4.1 3.7-3.6 5.8-8.6 0.7-1.4 0.3-1.4 0.2-2.2 0.2-0.8 0.4-0.8 1.4-0.6 8.2-1.7 1.9-1.2 1-1.2 1.8-4.4 0.8-1.3 1.3-1.1 6.7-3 1.7-0.5 18 4.3 18.1-0.6 2-0.6 1.5-1.1 4-3.7 3.2-1.2 8.3 0.1z" id="ROBN" name="Bistrita-Nasaud" style=";fill:none;stroke:#ffffff;stroke-width:2;"/></svg>