<?xml version="1.0" encoding="utf-8"?>
<svg height="704" viewBox="0 0 1000 1000" width="1000" xmlns="http://www.w3.org/2000/svg"><path d="M719.3 609.2l-0.1-0.1-2.4 0.2-2-1.1-10.1-2-7-4.4-2.5 1.6-11.3 1.2-9.1 5.4-3.4 1-4.4 0-1.1 0.3-1.9 1.2-0.9 0.3-1.9 0.2-3.3 1.1-19 2.9 0-0.1-0.2-1.8 0.3-1.4 0.7-1.7 2.8-4 0.6-1.8 0.2-2.2-0.2-3.3-0.8-2.9-1.3-2.6-2.2-2.4-8.5-5.1-4.5-5.3 1-3.5 2.5-3.9 2.5-3.3 1.7-1.7 1.7-1.2 5.8-2.7 1.1-1.2 0.7-1.1 0.4-1.1-0.1-0.8-0.6-0.5-1.8-0.6-1.3-0.8-0.9-1 0.1-1.8 0.3-0.8 1.7-1.1 7.7-4.1 1.5-0.2 1.4 0.3 1.3 0.7 3.1 2.3 1.2 0.4 1.4 0.2 1.6-0.2 2.3-0.8 0.9-0.6 0.8-0.7 1.5-1.9 0.7-0.6 0.9-0.2 0.8 0.3 3.1 3.1 1.6 1 1.8 0.6 2.5-0.1 1.4-0.2 1.5-0.1 1.1 0.3 2.9 1.7 1.8 0.4 5.5-1 1.9 0.1 2.2 0.5 7.1 3 2.3 0.5 2.9 0 5.6-1.1 17.1 0.4 1.7-0.5 2.8-1.1 2.4-0.3 2.9 0.1 13.4 2.5 2.8 1.4 5.3 1.2 1.3 0.6 1.4 1.3 2.1 2.3 3.9 2.7 8.8 3.7 14.6 4.8-2.9 6.7-2.5 3.2-3.2 2-13.9 3.5-3.5 2.8-1.9 1.2-4 0.7-8-0.1-3.8 1.3-5.1 3.1-0.8 1-0.7 1.2-1.7 1.4-2 1.1-1.6 0.5-14.7-2.4-1.4 1.2-1.2 1.1-1.2 1.7z" id="ROCL" name="Calarasi" style=";fill:none;stroke:#ffffff;stroke-width:2;"/></svg>