<?xml version="1.0" encoding="utf-8"?>
<svg height="704" viewBox="0 0 1000 1000" width="1000" xmlns="http://www.w3.org/2000/svg"><path d="M746.3 337.4l3.3 4.5 1.2 2.5 0.9 3.9 1.2 3.5 0.8 1.5 1 0.8 0.7-0.2 0.5-0.4 0.3-0.6 0.2-0.8 0-2.2 0.6-3.7 0-1.3-0.3-1.2-0.5-1.3-2-3.7-0.2-1.1 0.4-0.9 1.3-0.8 16.5 2 1.5 0.6 0.8 0.8 0 1.1 0.2 1 0.7 0.8 1 0 0.8-0.5 0.6-0.9 0.9-2 0.8-1.1 0.9-0.8 1.5-0.7 1.4 0.1 7.2 2.3 3.6 1.9 2.4 0.6 1.5 0.1 3.1-0.7 0.3-0.2 0.1 0 0-0.1-0.1 0.4-0.5 1.6-0.7 0.4-0.1 0.1-0.2 0.6-0.1 0.2 0.1 0.6 0.3 0.2 0.2 0.2 0.1 0.7 0 0.1-0.2 0.9-1 4-0.2 1.3 0.3 2 2.4 6.9 0.2 1.6 0.2 0.8 0.6 0.9 0.2 0.6 0.2 0.5-0.2 1.1-0.4 1-0.1 1.1 0.2 1.1 0.3 0.5 0.6 1.2 0.2 0.5-0.3 0.7-0.4 0.3-0.5 0.3-0.4 0.3-0.4 0.8 0 0.4 0.1 1.1 0.2 2.5 1.5 4.2 1.1 2.1 0.5 1.2 0.3 0.3 0.6 0.9 0.1 2.9 0.7 11-0.1 1 0 0.7-0.1 0.5 0.3 0.9 0.3 0.8-1.4 0.7-0.3 0-2.8 0-0.3 0.1-0.6 0.2-0.4 0.2-1.6 1.1-1.5 1.5-1.3 1.6 5.4 2.9 2.2 1.7 1.6 2.9 0.4 0.8 0.2 0.3 0.2 0.4 0 1.4 0 2.4 0 0.8 0.7 1.4 2.5 3.1 1.3 1.6 0.2-0.1-0.1 0.3-1.3 1.6-0.4 1.1-0.1 0.7-0.4 0.9-0.3 0.4-0.6 0.2-1-0.2-2.8-1.4-1.6-0.5-0.9 0-1 0.2-4.2 1.4-1 0.2-0.7 0.5-1.3 2.2-5.8-0.8-2.4-0.8-2.3-0.4-6.3 0.3-3.4-0.7-5.3-2.8-3.3-2.9-1.9-2.4-0.8-0.7-1.2-0.3-1.7 0.3-3.4 0.2-5.5-2.4-2.6-2.8-0.9-1.6-1.8-4.8-0.2-1.1 0-1.3-0.1-1.5-0.7-3.1-0.8-1.9-1-1.6-2.1-2-0.6-1.1-0.5-0.9-0.5-0.8-1-0.7-2.6-1.3-0.9-0.9-2.5-3.6-0.6-1.3-0.6-1.7-0.6-2-10.3-25.9-0.8-3.7 0.1-3 0.3-1.6 0.6-1.4 0.8-1 1.4-1.5 2.4-2.9 2.1-1.9 1.8-1 2.7-0.6 3.4-0.2 1.5-0.5 1.6-1.5 0.9-1.2 1.2-1.1 0.9-0.6 5.5-0.4z" id="ROGL" name="Galati" style=";fill:none;stroke:#ffffff;stroke-width:2;"/></svg>