<?xml version="1.0" encoding="utf-8"?>
<svg height="704" viewBox="0 0 1000 1000" width="1000" xmlns="http://www.w3.org/2000/svg"><path d="M793.4 578l-14.6-4.8-8.8-3.7-3.9-2.7-2.1-2.3-1.4-1.3-1.3-0.6-5.3-1.2-2.8-1.4-13.4-2.5-2.9-0.1-2.4 0.3-2.8 1.1-1.7 0.5-17.1-0.4-5.6 1.1-2.9 0-2.3-0.5-7.1-3-2.2-0.5-1.9-0.1-5.5 1-1.8-0.4-2.9-1.7-1.1-0.3-1.5 0.1-1.4 0.2-2.5 0.1-1.8-0.6-1.6-1-3.1-3.1-0.8-0.3-0.9 0.2-0.7 0.6-1.5 1.9-0.8 0.7-0.9 0.6-2.3 0.8-1.6 0.2-1.4-0.2-1.2-0.4-3.1-2.3-1.3-0.7-1.4-0.3-1.5 0.2-7.7 4.1-2.2-1.8-3.1-1.6-0.8-1.1-0.3-1.1 0.2-1.2 0.3-1.1 0.5-1.1 0.6-1 0.8-0.9 3.8-2.6 0.6-0.8 0.4-1.1-0.2-0.9-0.9-1-5.9-3.3-0.9-1.2-0.3-1.2 0-1.1-0.3-1-0.7-1.4-0.2-1.1 0-2.2-0.6-0.7-0.9-0.4-3.9-0.5-1.8-0.6 3.5-3.2 3.2-1.6 1.4-0.1 1.1 0.3 2.2 1.3 2.2 0.1 1.1-0.4 0.9-0.9 0.7-1 1.3-1.1 1.3-0.3 5.2 0.5 1.4-0.4 1.3-0.7 1-0.8 0.7-0.7 1.2-2.2 2.5-3.1 2.1 1.1 3.3 2.9 1.7 0.5 2.3 0.1 6.3-0.5 5.8 1 1 0.5 1.1 0.3 1.4 0 3.4-0.7 1.9 0.1 2.2 0.8 2.9 1.8 1.3 0.6 1.4 0 1.3-0.8 1-1.1 1.2-0.7 1.5-0.2 2.2 0.7 1.5 0.7 1.3 0.9 0.9 0.9 0.6 0.9 0.1 1 0 0.9-0.2 0.8 0 0.7 0.1 0.7 0.4 0.3 0.7 0.1 0.6-0.1 2.7-1.1 2.2-0.6 1-0.5 0.4-0.5-0.4-0.8-0.7-0.6-1.1-0.7-0.6-0.7 0-0.8 0.4-0.6 2.1-1.1 8 3.3 1.5 0.2 1.9-0.1 2.2-1.1 1.7-0.6 1.2 0.3 1.2 0.6 2.7 1 26.3 0.8 3.7-0.8 2.2-0.7 1.7-0.9 2.1-0.8 4.5-0.5 2 0.4 1.7 1.1 0.8 1 2.9 2.8-1.6 0.9-1 1.5-0.7 1.8 0.8 2.5 1.3 2.4 1.7 1.8 1.8 0.8 2.4 0.3 1.7 1 5.1 5.7 0.4 0.8-0.1 1.3-0.5 3.1-0.7 1.4 0 4.8-0.6 1.3-1.1 0.4 0.4 1.1 1.2 1.3 2.2 1.2 2.3 0.8 1.8 0.4 0.7 1 0.9 2.5 0.6 2.8 0.2 2-1.1 1.7-4 3.3-0.9 1-2.4 5.9z" id="ROIL" name="Ialomita" style=";fill:none;stroke:#ffffff;stroke-width:2;"/></svg>