<?xml version="1.0" encoding="utf-8"?>
<svg height="704" viewBox="0 0 1000 1000" width="1000" xmlns="http://www.w3.org/2000/svg"><path d="M640.6 555.3l-1.7 1.1-0.3 0.8-0.1 1.8 0.9 1 1.3 0.8 1.8 0.6 0.6 0.5 0.1 0.8-0.4 1.1-0.7 1.1-1.1 1.2-5.8 2.7-1.7 1.2-1.7 1.7-2.5 3.3-2.5 3.9-1 3.5-5.2 5.5-2.3 1.9-1.3 0.7-1.2 0.3-1.3 0.1-1.4-0.2-1.6-0.5-1.5-0.6-1.6-1.1-7.3-6.5-1.1-0.6-1.1-0.1-1 0.1-0.9-0.2-0.8-0.8-0.7-1.6-1.3-1-1.9-0.6-2.5-1.2-1-1.7-0.6-2.5 0.9-6.1 0.9-2.6 1.5-3.1 0.5-1.5 0.3-2.1 0.1-1.7-2.4-5.2 2.2-1.8 4.6-5.4 0.9-1.3 0.4-1.1-0.4-1.1-3.2-1.2-0.4-0.8 0-0.8 0.4-0.9 2-1.5 0.6-0.9 0.4-1.4 0.6-1.3 1.2-0.9 2.4-2.9 0.5-0.5 0.8-1.5 5.8-0.1 5.8-1.9 2.3 0 2.5 1.1 1.4-0.2 4 0.2 1.8 0.6 3.9 0.5 0.9 0.4 0.6 0.7 0 2.2 0.2 1.1 0.7 1.4 0.3 1 0 1.1 0.3 1.2 0.9 1.2 5.9 3.3 0.9 1 0.2 0.9-0.4 1.1-0.6 0.8-3.8 2.6-0.8 0.9-0.6 1-0.5 1.1-0.3 1.1-0.2 1.2 0.3 1.1 0.8 1.1 3.1 1.6 2.2 1.8z m-22.9 16.2l1.5-4.2-4.2-3.7 2.3-6.8-7.5-1.8-0.9-9.1-6.4 2.4-4.6 8.1 5 2.2 0 4.2-6.3 0.6 0 4.3 6.3 6.8 5.3 1.2 4.6 6.1 2.6-2.3-3-7.4 0.7-2 4.6 1.4z" id="ROIF" name="Ilfov" style=";fill:none;stroke:#ffffff;stroke-width:2;"/></svg>