<?xml version="1.0" encoding="utf-8"?>
<svg height="704" viewBox="0 0 1000 1000" width="1000" xmlns="http://www.w3.org/2000/svg"><path d="M319.2 156.7l-8.8-1.7-1.7-0.9-1.3-1.1-0.2-1.1 0.3-0.9 0.8-0.8 3.5-2.4 0.9-0.8 0.8-1 0.5-1 0.4-1.2 0.4-1.5 0.5-1.6 0.8-1.3 5.6-7.2 1-0.6 0.8 0 0.8 0.5 1.6 2 1.1 1.1 4.4 2.9 1.5 0.6 1.6 0 1.8-1 1.5-1.7 1.7-2.5 2.1-2.6 1.6-3.6 0.7-1.8 1.2-2.7 0.3-1.7-0.2-1.9-0.7-1.2-1.1-1-1.5-0.9-6.5-1.8-1.1-0.7-0.6-1-0.2-1.2 0.5-2 1.1-1.2 1.5-0.7 6.9 0.1 3.7 1.1 1.5 0.8 1.6 0.4 1.7 0.1 2.2-0.4 2.4-1.2 13.6-10.4 0.8-1.6 0.1-1.6-1-1.8-1.2-1.2-3.3-2.1-1.3-1.1-1-1.1-4.5-6.5-1.5-5.3 0 0.1 0.2 0 0 0.2 0.2 0.1 0.1 0 0.1 0.1 0.1 0 0.1 0 0.1-0.1 0.1 0 0.1 0 0.1 0 0.1 0 0.1 0 0-0.1 0.1-0.1 0.1 0 0-0.1 0.1-0.1 0-0.1-0.1-0.1-0.1-0.1 0-0.1 0.1-0.1 0-0.1 0-0.1 0.1-0.2 0-0.2 0-0.1 0.1-0.1 0-0.1 0.1 0 0-0.1 0.1 0 0.1-0.1 0.1-0.1 0.1 0 0-0.1 0.1-0.1 0-0.1 0.1 0 0-0.1 0-0.1 0-0.1 0.1-0.1 0-0.1 0.1 0 0-0.1 0.1-0.1 0-0.2 0.1 0 0-0.1 0.1-0.1 0.1 0 0.1-0.1 0.1-0.1 0-0.1 0-0.4 0-0.3 0-0.1 0.4-0.1 3.4-0.6 0.1 0.1 0.3 0.2 0.2 0.1 0.1 0 0.1 0 0.1 0 0.2-0.1 0.1 0 0.8 0.3 6 0.7 0 0.1 0.1 0.2 0 0.2 0.1 0.2 0.1 0.1 0 0.1 0.2 0 0.1 0.1 0.1 0 0.1 0 0.2 0 0.1 0.1 0.2 0.1 0.1 0 0.1 0.1 0.2 0.1 0.1 0.1 0.2 0.1 0 0.1 0.1 0 0 0.1 0.1 0 0.1 0 0.1 0 0.2 0 0.1-0.1 0.1 0 0-0.1 0.1-0.1 0.2 0 0.6-0.1 0.5-0.1 2.2 0.3 6.7-0.3 1.6 0.8 3.4 3.2 0 0.1 0 0.2 0.1 0 0 0.1 0 0.1 0.1 0 0 0.1 0.1 0 0.1-0.1 0.1 0 0.1 0.1 0 0.1 0 0.1-0.1 0.1 0 0.1 0.1 0.1 0.1 0.2 0.3 0.2 0.1 0 0 0.1 0 0.1 0 0.1 0 0.1-0.1 0.3 0 0.1 0 0.1 0 0.1 0.1 0 0.1 0.1 0.1 0 0.1 0.2 0.2 0.1 0 0.1 0.1 0 0 0.1 0.1 0.1 0.1 0.3 0.1 0.1 0.1 0 0.1 0 0.1 0 0.1 0 0.1 0 0 0.1 0.1 0.1 0.1 0 0.2 0.1 0.1 0.1 0.1 0 0.1 0 0.1-0.1 0.1 0 0.1-0.1 0.1 0 0-0.1 0.1-0.1 0.6 0 3.8-1.6 0.1 0 0.1 0 0.1 0 0.1 0 0.2 0 0.1 0 0.1 0 0-0.1 0.1-0.1 0.1 0 0-0.1 0.1 0 0.1 0 0.1-0.1 0.1 0 0.1 0 0.1 0 0.1 0 0 0.1 0.1 0 0.1 0.1 0.1 0 0.1 0 0.1-0.1 0.1 0 0.1-0.1 0.1-0.1 0-0.1 0.1-0.1 0.1-0.1 0.1-0.1 0.1-0.1 0-0.2 3-1.2 0.2 0-0.1 0.1 0 0.1 0 0.1 0 0.1 0.1 0 0.1 0.1 0.1 0 0.1-0.1 0.1 0 0.1 0 0.1-0.1 0.1 0 0.2-0.1 0.1 0 0.1-0.1 0.2 0.1 0.1-0.1 0.2 0 1.2 0.1 1.6 1.1 0.4 0.1 0 0.2 0.1 0.1 0 0.1 0.1 0 0 0.1 0.1 0 0.1 0 0.1 0 0.1 0 0.1-0.1 0.2-0.1 3.4 0.9 1.5 0.7 0.1 0.1 0.2 0.1 0.1 0.1 0.1 0 0.1 0 0.2 0.3 0.1 0.2-0.1 0.2 0 0.1 0.1 0.1 0 0.1 0 0.1 0.1 0.2 0 0.1 0.1 0.1 0 0.1 0.2 0.2 0.1 0.1 0 0.1 0.1 0.1 0 0.1 0.1 0.2 0.1 0.2 0.1 0.1 0 0.1 0 0.1 0.1 0.1 0.2 0.2 0.1 0.1 0.2 0 0.1 0 0.1-0.1 0.2 0 0.3-0.1 0.1 0 0.2 0 0.2 0 0.1 0 0.1 0 0.1 0 0.1 0 0.1 0.1 0.2 0.1 0.1 0.1 0.1 0.1 0.1 0.1 0.1 0 0.1 0.1 0.1-0.1 0.1 0 0.1 0 0.1-0.1 0.4 0.1 0.2-0.1 5.7 2.2 1 0 0.1 0.1 0.1-0.1 0.2 0 0.1 0.1 0.1 0 0.2 0 0.2 0 0.5-0.3 0.2 0 0.2-0.1 0.1-0.1 0.3-0.2 0.1 0.1 0.1-0.2 0.2 0 1.2-0.7 0.1 0 0.2 0 0.1 0 0.1 0 0.1 0 0.1 0 0.1 0.1 0.4 0 0.1 0 0.1 0 0.1 0.1 0.3 0 0.1-0.1 0.1-0.1 0.5-0.2 0.1-0.1 0.5-0.2 0.1-0.1 0.2 0 0.2 0 0.1-0.1 0-0.1 0.2-0.2 0.1 0 0.1-0.4 0.4-0.1 0.2-0.1 0.1-0.1 0.1-0.1 1.8-0.1 0.4 0.4 0.4-0.1 0.3 0.3 0 0.1 0.3 0.2 0-0.1 0.5-0.1 0.1 0 0.1-0.1 0.1 0 0.3-0.3 0.3-0.1 0.1-0.1 0.2-0.1 0.1 0 0.2-0.2 0.3-0.2 0.3-0.1 0.5-0.2 0.4-0.1 0-0.1 0-0.1 0-0.4 0-0.1-0.1-0.1 0-0.1 0-0.2 0.1-0.3 0.1-0.3 0.1-0.3 0.2-0.1 0.1-0.2 0.1-0.3 0.1 0 2-1.1 1.8-0.1 5.5 1.4 5.5-0.1 1.8 0.4 0.8 0.5 3.7 2.2 2.5 2 1.5 1.8 0.6 2.3 0.1 1.9 0.4 1.8 1.7 1.9 3.3 2.1 7.7 3 1.4 1.3 1.2 1.7 3.3 5.8 2.2 3.5 1.8 1.2 3.1-0.5 1.3-0.3 1.2 3.9 2.3 3.7 4.2 4.3 0.7 1.4 0.3 1.5-0.8 1.3-0.8 0.9-5.7 2.1-8.3-0.1-3.2 1.2-4 3.7-1.5 1.1-2 0.6-18.1 0.6-18-4.3-1.7 0.5-6.7 3-1.3 1.1-0.8 1.3-1.8 4.4-1 1.2-1.9 1.2-8.2 1.7-1.4 0.6-0.4 0.8-0.2 0.8-0.2 2.2-0.3 1.4-0.7 1.4-5.8 8.6-3.7 3.6-16-1.2-2.7 2.3-2.5 1.3-1 0.3-1.4 0.1-1.2-0.3-1.3-0.8-0.8-0.9-0.9-0.8-1.1-0.7-1.9-0.9-0.9-1.1-0.5-1.1-0.3-1.1-1.2-0.8-2.3-0.4-14.8 0.7-2.2-0.4-12-4.1-3.8-2-2-0.7-2.5-0.4-10.1-0.1-4.8 1.8z" id="ROMM" name="Maramures" style=";fill:none;stroke:#ffffff;stroke-width:2;"/></svg>