<?xml version="1.0" encoding="utf-8"?>
<svg height="704" viewBox="0 0 1000 1000" width="1000" xmlns="http://www.w3.org/2000/svg"><path d="M645.3 178.1l6.6 6.5 4.9 7.2 2.9 7.2 0.7 2.2 0.8 1.9 1.3 0.7 1.6 0.1 1.8-0.2 2.3 0 2.7 0.8 3.7 2 5.7 4.5 2.5 1.3 3.9 0.9 1.4-0.1 0.8-0.5 0.6-0.8 0.8-2.4 0.8-0.8 1.4-0.3 4.6 1 1.7 0.2 1.1-0.5 1-0.9 3.4-3.9 1.2-0.7 1.6-0.4 2.2 0.2 1.2 0.6 0.7 1.1 0.4 1.3 0.4 1.3 0.8 1.4 1.2 1.4 2.2 1.9 1.3 1.5 0.6 1.3-0.4 1-0.8 0.6-2.9 0.7-1.7 0.7-1.6 0.9-1.3 1.3-0.6 1.4 0.1 1.5 1 1.6 2.1 2.8 1.7 3 0.5 1.2 0.5 1.9 0.6 4.4 2.1 5.9 0.4 2.2 0 1.6-1.1 2.3-3.8 1.9-2.7-0.8-1-0.6-7.8-1.7-2.3 0-6.8 1-2-1.3-1.3-1.5-0.6-1.4-0.1-1 0.3-0.9-0.2-1-0.5-1.1-1.9-1.5-1.1-0.1-0.5 0.5 0.1 1 0.1 1.1-0.3 1.1-0.5 1-2.6 2.2-0.5 0.9-0.1 1.1 0.2 1.2 0 1.1-0.5 1.1-1.1 0.9-1.6 0.7-1.5 0-1.2-0.7-2.9-2.1-2.6-0.9-1.8 0.1-1.2 0.8-0.8 1.9-0.8 1-5.9 2.5-1.4 0.9-1.8 2.4-0.9 0.8-1.2 0.1-3.9-0.8-3.5 0.9-3.6-0.1-1.1 0.4-0.8 0.8-0.8 1.3-0.9 1.1-0.9 0.8-1.7 0.2-7.6 0-1.1-0.2-0.2-0.6 0.1-0.7 0.2-1 0-1-0.2-1-0.5-1-0.7-1-1-2.2-0.7-0.7-1.4-0.6-1.1 0.3-1.1 0.5-5.9 4.4-2.5 1-1.9 0.4-1.3-0.3-2.7-1.6-2.2-0.6-1.3 0-3.6 1.1-7.8-2-0.9 0.3-1 0.7 0 1.3 0.6 2.9 0.1 1.3-0.3 0.9-1-0.1-1.2-0.7-3.2-3.2-1.4-1.8-0.8-1.5-0.4-1.7-1.1-23.3 0-1.5 0.2-1.1 0.5-0.7 0.8-0.4 0.9 0 1.8 0.3 0.6 0 0.4-0.7 0-1.1-0.5-2.3-0.8-1.5-1.4-1.3-3.2-2.4-1.7-2.3-1.2-2.4-1.6-4.2-1.2-2.1-1.3-1.6-1.4-0.9-2.7-1.2-2.2-0.6 0.1-3.1 1.1-3.6 1.2-2.5 4.3-5.1 1.4-1.4 3.8-2.5 1.6-1.4 0.8-1.4 0.2-1.4-0.3-1.1-0.7-1.1-1.9-1.8-1.7-2.4-0.3-1 0.4-0.8 0.8-0.4 1-0.1 1.2 0.5 1.3 0.8 4.4 4.2 1.2 0.8 1.3 0.2 1.7-0.3 7-3.3 1.4-0.1 1.3 0.5 1.2 0.8 1.6 0.5 1.8 0.1 5-1.3 10.8 0 3.5-0.8 9-4.7 2.2-0.6 1.9 0 1.9 0.5 1.7 0.7 1.4 1.1 3.4 3.9z" id="RONT" name="Neamt" style=";fill:none;stroke:#ffffff;stroke-width:2;"/></svg>