<?xml version="1.0" encoding="utf-8"?>
<svg height="704" viewBox="0 0 1000 1000" width="1000" xmlns="http://www.w3.org/2000/svg"><path d="M601.7 526.2l-1.2-0.3-1.9-1-1.1-1-6.7-8.2-1.6-0.9-1.5-0.6-4.6-0.6-1-0.8-0.7-1.3-0.4-2.5 0.2-1.9 0.3-1.9 0-2-0.5-1.9-1.3-2.2-1-1.1-0.7-0.4-0.8 0.2-0.8 0.4-1.1 0.2-1 0-1.2-0.4-1-0.6-0.9-0.8-0.9-1.5-0.7-1.7-0.8-3.4-0.5-5.8-0.4-1.5-0.8-1.4-4.1-4.5-5.2-10.3-1.1-1.6-1.1-1-0.8-1.1-1.5-2.6-0.1-1.8 0.2-2.7 0-1.1-0.2-1.4-0.6-1.6-1.1-1.8-1.1-1.2-0.9-0.7-1-0.6-0.9-0.8-0.7-1.2-0.4-1.6-0.7-6.2-1.7-8.5 1.5-1.1 1.3-0.5 16.2-2.9 2.2-0.1 4.1 0.9 4.1 1.6 1.4 0.2 2.7-0.9 1.2-0.1 1.1 0.7 0.7 0.9 1.3 2.2 0.8 0.8 1.4 0.2 1.6-0.5 1.9-1.6 0.9-1.6 0.4-1.8 0.3-1.5 0.4-1.5 0.7-1.2 1.3-0.5 2.1 0.3 5.1 3 4.5 0.9 5.8 6.9 3.9 2.9 1.4 1.3 1.2 2 3.3 7.2 0.5 2.1-0.1 1.3-0.6 0.9-0.2 1.1 0.5 1.5 2.7 2.8 1 1.4 0.3 1.6 0.1 1.1 0.3 1 0.7 1 1.3 0.8 1.4 0.2 4.2-0.3 1.1 0.4 0.9 0.8 0.5 1.7 1 0.9 0.8 0.2 0.7-0.5 1.6-1.5 0.8-0.3 0.5 0.3 0.1 1-0.2 1.1-0.2 1.3 0.3 1.6 1.4 1.5 2.2 1.8 0.9 1.3 0.6 1.4 0.4 2.1 0.3 1.9 0.2 5.2 0.4 2 0.7 1.4 1.5 1 2.7 0.8 0.9 0.3 2.1 2.2 0.8 1 0.5 1.2-0.2 1.8-0.8 1.1-1.7 1.8-0.6 1-0.1 1.3 0.4 1.3 3.6 3.7 1.9 3.2-2.5 3.1-1.2 2.2-0.7 0.7-1 0.8-1.3 0.7-1.4 0.4-5.2-0.5-1.3 0.3-1.3 1.1-0.7 1-0.9 0.9-1.1 0.4-2.2-0.1-2.2-1.3-1.1-0.3-1.4 0.1-3.2 1.6-3.5 3.2-4-0.2-1.4 0.2-2.5-1.1-2.3 0-5.8 1.9-5.8 0.1-0.8 1.5-0.5 0.5z" id="ROPH" name="Prahova" style=";fill:none;stroke:#ffffff;stroke-width:2;"/></svg>