<?xml version="1.0" encoding="utf-8"?>
<svg height="704" viewBox="0 0 1000 1000" width="1000" xmlns="http://www.w3.org/2000/svg"><path d="M357.3 75.7l1.5 5.3 4.5 6.5 1 1.1 1.3 1.1 3.3 2.1 1.2 1.2 1 1.8-0.1 1.6-0.8 1.6-13.6 10.4-2.4 1.2-2.2 0.4-1.7-0.1-1.6-0.4-1.5-0.8-3.7-1.1-6.9-0.1-1.5 0.7-1.1 1.2-0.5 2 0.2 1.2 0.6 1 1.1 0.7 6.5 1.8 1.5 0.9 1.1 1 0.7 1.2 0.2 1.9-0.3 1.7-1.2 2.7-0.7 1.8-1.6 3.6-2.1 2.6-1.7 2.5-1.5 1.7-1.8 1-1.6 0-1.5-0.6-4.4-2.9-1.1-1.1-1.6-2-0.8-0.5-0.8 0-1 0.6-5.6 7.2-0.8 1.3-0.5 1.6-0.4 1.5-0.4 1.2-0.5 1-0.8 1-0.9 0.8-3.5 2.4-0.8 0.8-0.3 0.9 0.2 1.1 1.3 1.1 1.7 0.9 8.8 1.7 1.1 2 0.8 1.9 0.2 1.1-0.2 1-0.5 0.9-3.7 3.2-0.6 0.8-0.5 1-0.4 0.6-0.5 0.3-1.2-0.8-1.6-1.9-1.1-0.5-3.9-1.1-1.4-0.8-2.3-2.3-1.4-0.8-10.5-3-1.9 0-2.7 0.7-12.6 6.1-4.1 3.4-0.9-2.5-0.7-3.6-0.9-1.7-1.1-1-2.9-1.6-1.6-1.4-1.3-0.9-1-0.3-1 0.3-2.3 1.3-0.9 0.2-1.4-0.3-0.9 0-0.9 0-0.8 0.3-1 0.2-1.6-0.3-0.8-0.7-0.6-1.1-1.1-3-0.8-1.7-2.8-4.2-1.5-2.9-1.4-2-4-2.9-1.1-1.2-0.8-1.3-1.2-2.8-2-3.1-0.4-0.7 0.1-1 0.1-1 0.3-1 2.4-3.4 0.3-1.2 0.3-2.6 0.4-1.1 0.7-0.9 1.6-1.2 0.7-0.7 2.1-3.2 1.1-1.1 1.8-1 1.7-0.6 1.2-0.2 4.5 0.7 1.4-0.1 1.2-0.5 1.1-1.1 1.6-5.6 3-0.7 7.1 3.7 3.3 0.6 3.7-0.5 3.5-1.6 2.8-2.4 2.4-3.2 1.1-0.9 2-0.9 2.1-0.2 0.5-0.4 0.9-1.6-0.2-1-0.5-1-0.1-1.2 1.1-1.9 1.5-1.1 3.9-1.5 1.5-1.4 2.5-4.5 1.5-1.9 2-0.6 1.5-1 0 0.1 0.1 0 0-0.1 0.1 0 0-0.1 0.1-0.2 0 0.1 0 0.1 0 0.1 0 0.1 0.1 0.1 0.1 0 0.1 0 0-0.1-0.1 0 0-0.1-0.1 0 0-0.1 0.1 0 0.1 0 0 0.1 0.1 0 0-0.1-0.1 0 0-0.1 0.1 0 0.1 0 0.1 0 0-0.1 0.1 0 0 0.1 0.1 0 0 0.1 0.1 0 0.1 0 0.1 0 0.1 0 0.2-0.1 0-0.1 0.1 0 0.2-0.1 0-0.1 0.1 0 0-0.1 0-0.1 0.1 0 0-0.1 0.1 0 0.1 0 0.1 0 0.1 0 0.1 0 0-0.1 0-0.1 0-0.1 0.1 0 0.1 0 0-0.1 0.1 0 0.2-0.1 0.1 0-0.1 0 0-0.1 0-0.1-0.1 0 0 0.1-0.1-0.1-0.1-0.1 0-0.1 0-0.1-0.1-0.1 0-0.1 0-0.1 0-0.1 0-0.1 0-0.1 0-0.1 0-0.1-0.1-0.2 0-0.1 0-0.1 0-0.1-0.1-0.1 0-0.1 0-0.1 0-0.1-0.1 0 0-0.1 0-0.1 0-0.1 0-0.1 0-0.2 0-0.2 0-0.1 0-0.3-0.1-0.1 0-0.1 0-0.1-0.1-0.2 0-0.1 0-0.1-0.1-0.1 0-0.1-0.1-0.1 0-0.1 0-0.1-0.1 0-0.1 0-0.1 0-0.1 0-0.1 0-0.1 0-0.1 0 0-0.1-0.1-0.1-0.1 0 0-0.1-0.1 0 0-0.1-0.1 0-0.1 0 0-0.1 0.1-0.3 1.5-0.1 1.7 0.8 1.5 1 1.5 1 1.5 0.4 1.6-0.2 3.3-2.6 0.2-0.1 0.1-0.1 0.7-0.5 0.4-0.1 0.5 0 0.3 0.1 0.5 0.4 0.1 0 0.1 0 0.1 0 0.2 0 0.1-0.1 0.1 0 0-0.1 0.1-0.1 0-0.1 0.1 0 0-0.1 0-0.2 0-0.1 0.1-0.1 0-0.1 0.1-0.3 0.1-0.1 0.1-0.1 0.1-0.1-0.7-0.1 0-0.1-0.1-0.3 0.3-0.2 0-0.1 0-0.1 0.3-0.1 0.2-0.1 0.1-0.1 0.3-0.2 0-0.2 0.1-0.3 0.3-0.2 0.1-0.3 0.2-0.4 0-0.4-0.2-0.1-0.1-0.1-0.1 0-0.2-0.1-0.2-0.1-0.2-0.4-0.1-0.1 0.4-0.3 0.3-0.2 0.5-0.5 0.2-0.3 0-0.1-0.1-0.2 0-0.1-0.2-0.2 0-0.2 0.3-0.4-0.2 0-0.2-0.2-0.1 0 0-0.3-0.1 0-0.1-0.1 0.1-0.1 0.1 0 0-0.1 0.1 0 0.1 0 0-0.1 0.1 0 0-0.1 0.1-0.1 0.2 0 0.1-0.3 0.3-0.7 0.3 0.1 0.3-0.2-0.2-0.2 0.1-0.2 0.1-0.2-0.1-0.1-0.3-0.2-0.5-0.4 0-0.1 0.1 0 0.1-0.1 0.2 0 0-0.1-0.1 0 0.1-0.1 0-0.1 0-0.1 0.4-0.1 0.4-0.2 0.1 0 0.2-0.4 0.1-0.1 0.5 0 0.1 0.2 0.2 0 0.1-0.4 0.2-0.1 1.9 0.3 6.6 2.3 1.7 1.3 4 4.7 4.6 3.9 2.1 2.6 0.7 0.3 0.7 0.1 0.7-0.1 0.8-0.3 0.1-0.1 0.2 0 0.1 0 0.2 0.1 6.2 3.1 2-0.1 0.1-0.1 0.1 0.1 0.3 0.1z" id="ROSM" name="Satu Mare" style=";fill:none;stroke:#ffffff;stroke-width:2;"/></svg>