<?xml version="1.0" encoding="utf-8"?>
<svg height="704" viewBox="0 0 1000 1000" width="1000" xmlns="http://www.w3.org/2000/svg"><path d="M573.2 663l-5.9 0.2-1.7 1.2-1.5 1.4-2.1 1.3-2.1 1-1.8 0.4-1.8 0.9-2.2 0.3-4.3-0.3-0.7 0.1-1.4 0.3-4 1.8-2.2 0.5-4.2-0.5-3.5-2.1-3.3-2.5-0.3-0.2-3.2-1.9-3.9-1-12.5-0.9-11.3-4.1-20.3 1.4-4.5-0.6-4.2-1.6 0.1-0.2 1.9-2.6 1.1-1.1 1.3-1 2.7-1.3 0.9-0.7 0.1-1-0.5-2-4.2-6.9-3.4-6.9-2.9-7.7-0.1-2.5 0.6-2 2-2.7 1.7-0.9 1.6-0.5 1.7-0.2 1.3-0.3 1-0.6 2.9-3.1 1.1-0.8 1.2-0.4 3.3-0.7 1.2-0.8 0.6-1.2-0.2-2.5-0.4-2-0.2-2.3 0.1-3.6 1.1-4.5 0.3-3-0.3-6.4-0.8-5.9 0.1-2.1 0.1-1.4 1.2-3.1 4.1-1 5.2 1.3 1.7-0.1 1.5-0.3 1-0.6 0.7-0.6 1.2-1.5 1-0.8 0.9-0.1 3.1 0.5 2.3-0.6 1.3-0.6 2.2-2.1 2-1.2 4.3-0.8 2.2 0 1.7 0.2 1.6 0.4 3 1.5 2.1 0.9 1.1-0.1 1.6-0.5 1.9-1.9 1.1-1.5 1.4-2.5 0.6-0.8 1.3-1.5 0.4-0.8 0-0.8-0.7-1.4 0-0.8 0.5-0.5 1.4-0.2 2.1 0.4 5.4 2.6 2.4 0.2 2.1 1.6 0.2 0.9-0.1 1.2-1.6 2.8-2 5.1-0.5 1.8 0.3 1.1 0.8 1.4 0.9 1.7 1.3 3.6 1 1.6 1.2 0.9 8.4 1.1 1.4 0.5 2.7 2.5 1.9 1.4 0.9 0.9 0.5 1.5 0.4 2.1 0 3.5-0.2 2 0.5 3.8 0 2-0.3 1.5-0.8 0.6-0.9 0.4-1.1 0.1-0.8 0.3-0.9 0.7-0.4 1.1-0.4 2.9-0.4 1.3-1.2 2.5-0.5 1.6-0.2 1.8 0 2.1 0.8 7.7 2.5 13.8 1.1 3.3 2.4 3.3 0.5 1.7 1.6 13.6 0 0.1z" id="ROTR" name="Teleorman" style=";fill:none;stroke:#ffffff;stroke-width:2;"/></svg>