<?xml version="1.0" encoding="utf-8"?>
<svg height="704" viewBox="0 0 1000 1000" width="1000" xmlns="http://www.w3.org/2000/svg"><path d="M714.7 233.7l11.1 0.7 7.2-1.3 1.9 0.1 1.8 0.4 1.7 0.7 2.4 0.6 1.7-0.1 3.5-1.2 1.1-0.9 0.6-1.1 0.5-1.1 0.6-0.9 1.3 0 1.7 0.7 3.7 0.7 1.9-0.3 1.1-0.6 0.5-0.9 0.2-0.9 0-0.8-0.3-0.5-0.6-0.1-1.8 0.2-1.1-0.1-0.7-0.4-0.1-0.7 0.4-2 0.1-1.2-0.1-1.1-0.5-1-0.2-1.1 0.1-1 0.8-0.9 1 0 1.3 0.6 5.7 4.5 2.7 2.8 3.6 4.8 1.1 0.8 0.7-0.1 0.3-0.7-0.1-1.3 0.1-1.4 0.4-1.3 1.3-0.9 1.2 0.2 0.8 0.8 0.4 1.4-0.1 1.5-0.9 2.9-0.5 1.2-0.2 1.1 0.1 1 1 0.7 1.3 0.2 1.5-0.2 1.1 0.3 3 1.9 3.5 1.2 1.4 0 0.9-0.6 0.3-0.9 1.2-0.8 0.8 0.1 0.9 0.6 0.9 0.8 1.1 0.6 1.2-0.1 0.9-0.5 0.6-0.6 1.7-1.1 4.6-0.6 0.2 0 0.7-0.4 0.1 0-0.2 1.1 1.6 4 0.4 0.7 1.9 3.2 0.4 0.6 1.2 2.1 0 0.2 0 2.1 0 0.4 0.9 1.8 0.3 0.6 3.2 6.5 0.1 0.1 0.9 1.8 0.2 1.1 0.2 0.7 0.2 0.3 0.2 0.2 0 0.1 0.1 0.3 0 0.2 0.1 0.4 0 0.1 0 0.1 0 0.1 0 0.1 0 0.3 0.1 0.4 0.2 0.4 0.1 0.2 0.1 0.4 0.1 0.3 0 0.1 0 0.1 0 0.2 0 0.1 0 0.7-0.2 0.4-0.2 0.1 0 0.4-0.6 1.5-0.1 0.1-0.9 1.6-0.1 0.5-0.3 1.5 0.1 0.4 0 0.1 0.1 0.3 0.6 1.5-0.9 0.6-0.4 1.1 0 0.9-0.1 3-0.1 1.3 0.1 0.4 0.1 0.7 0.7 1.4 0.6 1.1 0.1 0.1 0.3 0.3 0.4-0.2 0.3 0.2 0 0.4 0.1 0.7 0 0.4 0 1.1 0 1.3 0 1.6-0.1 1.1-0.5 1.1-1.4 0.7 0.3 0.9 0.4 1-0.2 0.3-0.3 0.4-0.1 0.1-0.5 0.2-0.2 0.1-0.1 0.1-0.6 0.6-0.1 1.4-0.4 2.5 0 0.3-0.5 0.6-0.8 0.3-0.3 0.1-0.1 0.2-0.1 0.7-0.1 0.1 0.2 0.9 0.2 1.5 0 0.5 0.1 1.7-0.1 0.4-0.4 0.8-0.6 1.3-0.3 0.8-0.1 0.1-1.1 1.1-0.9 0.5-1.1 0.3-0.8 0.4-0.1 0.1-0.4 0.9 0 0.1 0.1 0.8 0.1 1.1 0.1 0.4-0.2 0.8-1.1 0.3-1 0.4 0.1 0.1 0 0.1 0 0.2 0 0.4-0.1 0.2 0 0.3 1.3 2.1 0.1 0.2 0.4 0.6 0.6 0.8 0.5 0.9 0.1 0 0 0.2 0.3 1.1-0.2 0.4-0.2 0.5-0.2 0.8-0.5 1.5-0.1 0.2-0.3 2.2-0.2 1-0.1 0.2 0.1 0.2 0.1 0.2 0.1 0 0 0.2 0 0.6-0.4 0.7-0.3 1 0 0.1 0 0.2-0.1 0.1 0 0.3-0.1 0.1 0 0.1-0.2 0.3-0.4 0.3-0.2 0-0.1 0.1-0.3 0.7 0 0.1-0.1 0-0.3 0.2-3.1 0.7-1.5-0.1-2.4-0.6-3.6-1.9-7.2-2.3-1.4-0.1-1.5 0.7-0.9 0.8-0.8 1.1-0.9 2-0.6 0.9-0.8 0.5-1 0-0.7-0.8-0.2-1 0-1.1-0.8-0.8-1.5-0.6-16.5-2-1.3 0.8-0.4 0.9 0.2 1.1 2 3.7 0.5 1.3 0.3 1.2 0 1.3-0.6 3.7 0 2.2-0.2 0.8-0.3 0.6-0.5 0.4-0.7 0.2-1-0.8-0.8-1.5-1.2-3.5-0.9-3.9-1.2-2.5-3.3-4.5-1.3-6.4-0.6-17.6-1.1-6.4-2.2-8.6-3.6-8.6-10-17.6-0.5-3.2 0.4-3.1-0.1-3.5-1.1-2.5-1.9-2-4.3-3.7-1.3-1.4-0.6-1-1.4-1.7 1.1-2.3 0-1.6-0.4-2.2-2.1-5.9-0.6-4.4z" id="ROVS" name="Vaslui" style=";fill:none;stroke:#ffffff;stroke-width:2;"/></svg>