<?xml version="1.0" encoding="utf-8"?>
<svg height="704" viewBox="0 0 1000 1000" width="1000" xmlns="http://www.w3.org/2000/svg"><path d="M745 331l1.3 6.4-5.5 0.4-0.9 0.6-1.2 1.1-0.9 1.2-1.6 1.5-1.5 0.5-3.4 0.2-2.7 0.6-1.8 1-2.1 1.9-2.4 2.9-1.4 1.5-0.8 1-0.6 1.4-0.3 1.6-0.1 3 0.8 3.7 10.3 25.9 0.6 2 0.6 1.7 0.6 1.3 2.5 3.6 0.9 0.9 2.6 1.3 1 0.7 0.5 0.8 0.5 0.9 0.6 1.1 2.1 2 1 1.6 0.8 1.9 0.7 3.1 0.1 1.5 0 1.3 0.2 1.1 1.8 4.8 0.9 1.6 2.6 2.8-5.7 2.1-1.9 1.2-1.7 1.6-2.5 3.2-2.4 3.7-0.9 2.8-4.4 0.2-2.1-0.3-4.6-1.3-0.9-0.4-0.7-1.1-0.2-1.1-0.2-1-0.4-1-0.6-0.6-1.2-0.3-1.7 0.1-0.8-0.3-1-0.9-1-0.6-1.6-0.3-0.9 0.3-0.9 0.7-0.8 1-0.8 0.7-0.9 0.4-0.8-0.2-0.4-1.2 0.3-2.5-0.2-0.9-0.6-0.5-1.3 0-1.2 0.4-2.3 1.3-1.1 0.5-1.2 0.1-1.3-0.5-1.7-1.1-2.6-2.7-0.6-1.7-0.1-1.7 0.1-1.1-0.6-1.3-1.7-1.2-2.8-1.3-2.3-0.4-1.5 0-0.7 0.5-0.2 0.5 0.1 0.5 0.2 0.3 0.1 0.4-0.1 0.5-0.2 0.5-0.4 0.5-0.6 0.1-1-0.2-1.4-0.5-1.9-0.3-1.2-0.5-4.1-2.3-3.2-2.5-2.2-2.7-6.1-5.2-2.1-0.9-1.3 0-1 0.4-1.1 0.3-1.4 0.1-2.7-0.4-1.7-1.3-1.8-2.2-6.4-11.1-4-5.8-4.2-4.1 0.8-6.8 1.4-7 0.1-2 1.6-4.6 6.1-9.8 11.1 1.7 2.9-1.5 0.2-1.3 0.1-2.6 0.3-1.3 0.6-1.2 1.1-1 1.6-0.5 9.2-0.6 2.9 0.6 4.2 0.1 2.4 0.7 1.6 0.2 1.9-0.4 1.6-0.1 1.5 0.2 3.7 1.6 0.9-0.2 0.4-0.6 0.2-0.9 0.5-1.1 0.8-0.9 1.6-0.8 1.5-0.2 1.3 0.3 5 1.8 1.2-0.3 0.9-0.6 1.1-2.1 0.9-1.1 2.6-1.7 1.1-1 1.6-2.3 1.1-1.2 2.3-1.3 7.1-1.5 2.5-0.1 1.9 0.3 4.1 2.6 1.8 0.2 1-0.3 0.8-0.7 0.5-0.9 0.7-0.8 0.9-0.2 3.4 1 2.9 0.4z" id="ROVN" name="Vrancea" style=";fill:none;stroke:#ffffff;stroke-width:2;"/></svg>